<svg width="20" height="12" viewBox="0 0 20 12" fill="none" xmlns="http://www.w3.org/2000/svg">
<path d="M0.9 1.15002C1.15 0.900024 1.446 0.775024 1.788 0.775024C2.13 0.775024 2.42567 0.900024 2.675 1.15002L10 8.47502L17.35 1.12502C17.5833 0.891691 17.875 0.775024 18.225 0.775024C18.575 0.775024 18.875 0.900024 19.125 1.15002C19.375 1.40002 19.5 1.69602 19.5 2.03802C19.5 2.38002 19.375 2.67569 19.125 2.92502L10.7 11.325C10.6 11.425 10.4917 11.496 10.375 11.538C10.2583 11.58 10.1333 11.6007 10 11.6C9.86667 11.6 9.74167 11.579 9.625 11.537C9.50833 11.495 9.4 11.4244 9.3 11.325L0.875 2.90002C0.641666 2.66669 0.525 2.37902 0.525 2.03702C0.525 1.69502 0.65 1.39936 0.9 1.15002Z" fill="#1F2420"/>
</svg>
