<svg width="33" height="54" viewBox="0 0 33 54" fill="none" xmlns="http://www.w3.org/2000/svg">
<path d="M8.41567 25.6625C11.194 23.8335 14.4917 22.9575 17.8115 23.1667C21.1312 23.376 24.2929 24.6591 26.8196 26.8225C29.3463 28.9859 31.1009 31.9123 31.8189 35.1602C32.5368 38.4081 32.1791 41.8014 30.7997 44.8283C29.4203 47.8551 27.0941 50.3513 24.1718 51.9403C21.2496 53.5293 17.8899 54.125 14.5995 53.6374C11.3091 53.1499 8.26647 51.6056 5.93058 49.2374C3.59469 46.8693 2.09223 43.8058 1.64983 40.509C0.250668 33.6358 -0.293667 25.375 2.44333 17.8962C5.37967 9.88451 11.8887 3.31418 23.5458 0.262848C24.5172 0.0396347 25.5374 0.203564 26.39 0.719875C27.2426 1.23619 27.8605 2.06428 28.1128 3.02855C28.3651 3.99282 28.2319 5.01744 27.7414 5.88514C27.2509 6.75283 26.4418 7.39537 25.4855 7.67651C16.0555 10.1452 11.6472 15.0748 9.64233 20.5335C9.04817 22.1627 8.64567 23.8838 8.41567 25.6625Z" fill="#01AF57"/>
</svg>
